<svg width="26" height="25" viewBox="0 0 26 25" fill="none" xmlns="http://www.w3.org/2000/svg">
<path d="M13 12.5C11.2125 12.5 9.68229 11.888 8.40938 10.6641C7.13646 9.4401 6.5 7.96875 6.5 6.25C6.5 4.53125 7.13646 3.0599 8.40938 1.83594C9.68229 0.611979 11.2125 0 13 0C14.7875 0 16.3177 0.611979 17.5906 1.83594C18.8635 3.0599 19.5 4.53125 19.5 6.25C19.5 7.96875 18.8635 9.4401 17.5906 10.6641C16.3177 11.888 14.7875 12.5 13 12.5ZM22.75 25H3.25C2.35625 25 1.59142 24.6943 0.9555 24.0828C0.3185 23.4703 0 22.7344 0 21.875V20.625C0 19.7396 0.23725 18.9255 0.71175 18.1828C1.18517 17.4411 1.81458 16.875 2.6 16.4844C4.27917 15.6771 5.98542 15.0714 7.71875 14.6672C9.45208 14.2641 11.2125 14.0625 13 14.0625C14.7875 14.0625 16.5479 14.2641 18.2812 14.6672C20.0146 15.0714 21.7208 15.6771 23.4 16.4844C24.1854 16.875 24.8148 17.4411 25.2882 18.1828C25.7628 18.9255 26 19.7396 26 20.625V21.875C26 22.7344 25.682 23.4703 25.0461 24.0828C24.4091 24.6943 23.6437 25 22.75 25ZM3.25 21.875H22.75V20.625C22.75 20.3385 22.6758 20.0781 22.5274 19.8438C22.3779 19.6094 22.1812 19.4271 21.9375 19.2969C20.475 18.5938 18.999 18.0661 17.5094 17.7141C16.0198 17.363 14.5167 17.1875 13 17.1875C11.4833 17.1875 9.98021 17.363 8.49063 17.7141C7.00104 18.0661 5.525 18.5938 4.0625 19.2969C3.81875 19.4271 3.62267 19.6094 3.47425 19.8438C3.32475 20.0781 3.25 20.3385 3.25 20.625V21.875ZM13 9.375C13.8938 9.375 14.6591 9.06875 15.2961 8.45625C15.932 7.84479 16.25 7.10938 16.25 6.25C16.25 5.39062 15.932 4.65521 15.2961 4.04375C14.6591 3.43125 13.8938 3.125 13 3.125C12.1062 3.125 11.3414 3.43125 10.7055 4.04375C10.0685 4.65521 9.75 5.39062 9.75 6.25C9.75 7.10938 10.0685 7.84479 10.7055 8.45625C11.3414 9.06875 12.1062 9.375 13 9.375Z" fill="#219F94"/>
</svg>
